<svg width="16" height="16" viewBox="0 0 16 16" fill="none" xmlns="http://www.w3.org/2000/svg">
<path d="M6.66663 10L6.66663 8" stroke="#C4C4C4" stroke-opacity="0.5" stroke-width="2" stroke-linecap="round"/>
<path d="M9.33337 10L9.33337 8" stroke="#C4C4C4" stroke-opacity="0.5" stroke-width="2" stroke-linecap="round"/>
<path d="M2 4.66675H14V4.66675C12.8954 4.66675 12 5.56218 12 6.66675V9.33342C12 11.219 12 12.1618 11.4142 12.7476C10.8284 13.3334 9.88562 13.3334 8 13.3334V13.3334C6.11438 13.3334 5.17157 13.3334 4.58579 12.7476C4 12.1618 4 11.219 4 9.33341V6.66675C4 5.56218 3.10457 4.66675 2 4.66675V4.66675Z" stroke="#C4C4C4" stroke-opacity="0.5" stroke-width="2" stroke-linecap="round"/>
<path d="M6.71214 2.24706C6.78811 2.17618 6.9555 2.11355 7.18836 2.06888C7.42122 2.02421 7.70653 2 8.00004 2C8.29355 2 8.57886 2.02421 8.81172 2.06888C9.04458 2.11355 9.21198 2.17618 9.28794 2.24706" stroke="#C4C4C4" stroke-opacity="0.5" stroke-width="2" stroke-linecap="round"/>
</svg>
